<svg width="35" height="26" viewBox="0 0 35 26" fill="none" xmlns="http://www.w3.org/2000/svg">
<path d="M13.4963 1.42065C8.39626 1.42065 4.26199 5.54058 4.26199 10.655C4.26199 10.655 4.26128 10.6549 4.26199 10.797C1.72767 12.0756 0 14.6328 0 17.7583C0 22.0203 3.49824 25.5719 7.81364 25.5719H7.85797H26.6377H26.9929C30.9153 25.5719 34.0962 22.3044 34.0962 18.4686C34.0962 15.4852 32.2536 12.9279 29.6566 11.7914C29.7575 11.5073 29.8342 11.0812 29.8342 10.655C29.8342 7.81364 27.608 5.68264 24.8619 5.68264C23.7282 5.68264 22.6797 5.9667 21.843 6.67704C20.3612 3.55158 17.1801 1.42065 13.4963 1.42065Z" fill="#95A5A6"/>
<path d="M13.4963 0C8.39626 0 4.26199 4.11992 4.26199 9.23431C4.26199 9.23431 4.26128 9.23427 4.26199 9.37634C1.72767 10.6549 0 13.2122 0 16.3376C0 20.5996 3.49824 24.1513 7.81364 24.1513H7.85797H26.6377H26.9929C30.9153 24.1513 34.0962 20.8837 34.0962 17.048C34.0962 14.0646 32.2536 11.5073 29.6566 10.3707C29.7575 10.0866 29.8342 9.66051 29.8342 9.23431C29.8342 6.39298 27.608 4.26199 24.8619 4.26199C23.7282 4.26199 22.6797 4.54605 21.843 5.25638C20.3612 2.13092 17.1801 0 13.4963 0Z" fill="#BDC3C7"/>
</svg>
